<?xml version="1.0" encoding="UTF-8"?>
<!DOCTYPE svg PUBLIC "-//W3C//DTD SVG 1.1//EN" "http://www.w3.org/Graphics/SVG/1.1/DTD/svg11.dtd">
<!-- Creator: CorelDRAW 2019 (64-Bit) -->
<svg xmlns="http://www.w3.org/2000/svg" xml:space="preserve" width="0.08in" height="0.043622in" version="1.1" style="shape-rendering:geometricPrecision; text-rendering:geometricPrecision; image-rendering:optimizeQuality; fill-rule:evenodd; clip-rule:evenodd"
viewBox="0 0 49.31 26.89"
 xmlns:xlink="http://www.w3.org/1999/xlink"
 xmlns:xodm="http://www.corel.com/coreldraw/odm/2003">
 <defs>
  <style type="text/css">
   <![CDATA[
    .fil0 {fill:#FEFEFE;fill-rule:nonzero}
   ]]>
  </style>
 </defs>
 <g id="Layer_x0020_1">
  <metadata id="CorelCorpID_0Corel-Layer"/>
  <path class="fil0" d="M26.12 8.96c-1.9,-5.37 -6.98,-8.96 -12.67,-8.96 -7.42,0 -13.44,6.02 -13.44,13.44 0,7.42 6.02,13.44 13.44,13.44 5.7,0 10.78,-3.59 12.68,-8.96l9.74 0 0 8.96 8.96 0 0 -8.96 4.48 0 0 -8.96 -23.19 0zm-12.66 8.96c-2.47,-0 -4.48,-2.01 -4.48,-4.48 0,-2.47 2.01,-4.48 4.48,-4.48 2.47,0 4.48,2.01 4.48,4.48 -0.01,2.47 -2.01,4.47 -4.48,4.48l-0 0z"/>
 </g>
</svg>
