<?xml version="1.0" encoding="UTF-8"?>
<!DOCTYPE svg PUBLIC "-//W3C//DTD SVG 1.1//EN" "http://www.w3.org/Graphics/SVG/1.1/DTD/svg11.dtd">
<!-- Creator: CorelDRAW 2019 (64-Bit) -->
<svg xmlns="http://www.w3.org/2000/svg" xml:space="preserve" width="0.158339in" height="0.158339in" version="1.1" style="shape-rendering:geometricPrecision; text-rendering:geometricPrecision; image-rendering:optimizeQuality; fill-rule:evenodd; clip-rule:evenodd"
viewBox="0 0 2.05 2.05"
 xmlns:xlink="http://www.w3.org/1999/xlink"
 xmlns:xodm="http://www.corel.com/coreldraw/odm/2003">
 <defs>
  <style type="text/css">
   <![CDATA[
    .str0 {stroke:#555555;stroke-width:0.06;stroke-miterlimit:2.61313}
    .fil0 {fill:none}
    .fil1 {fill:#555555;fill-rule:nonzero}
   ]]>
  </style>
 </defs>
 <g id="Layer_x0020_1">
  <metadata id="CorelCorpID_0Corel-Layer"/>
  <circle class="fil0 str0" cx="1.03" cy="1.03" r="0.99"/>
  <path class="fil1" d="M1.03 1.03c0.18,0 0.32,-0.15 0.32,-0.32 0,-0.18 -0.15,-0.32 -0.32,-0.32 -0.18,0 -0.32,0.15 -0.32,0.32 0,0.18 0.15,0.32 0.32,0.32zm0.23 0.08l-0.04 0c-0.06,0.03 -0.12,0.04 -0.18,0.04 -0.07,0 -0.13,-0.01 -0.18,-0.04l-0.04 0c-0.19,0 -0.34,0.15 -0.34,0.34l0 0.11c0,0.07 0.05,0.12 0.12,0.12l0.89 0c0.07,0 0.12,-0.05 0.12,-0.12l0 -0.11c0,-0.19 -0.15,-0.34 -0.34,-0.34z"/>
 </g>
</svg>
