<?xml version="1.0" encoding="UTF-8"?>
<!DOCTYPE svg PUBLIC "-//W3C//DTD SVG 1.1//EN" "http://www.w3.org/Graphics/SVG/1.1/DTD/svg11.dtd">
<!-- Creator: CorelDRAW 2019 (64-Bit) -->
<svg xmlns="http://www.w3.org/2000/svg" xml:space="preserve" width="0.0791339in" height="0.0436024in" version="1.1" style="shape-rendering:geometricPrecision; text-rendering:geometricPrecision; image-rendering:optimizeQuality; fill-rule:evenodd; clip-rule:evenodd"
viewBox="0 0 0.96 0.53"
 xmlns:xlink="http://www.w3.org/1999/xlink"
 xmlns:xodm="http://www.corel.com/coreldraw/odm/2003">
 <defs>
  <style type="text/css">
   <![CDATA[
    .fil0 {fill:#C6C6C6;fill-rule:nonzero}
   ]]>
  </style>
 </defs>
 <g id="Layer_x0020_1">
  <metadata id="CorelCorpID_0Corel-Layer"/>
  <g id="_2258674526448">
   <g id="_2258637793424">
    <path class="fil0" d="M0.51 0.18c-0.04,-0.11 -0.14,-0.18 -0.25,-0.18 -0.15,0 -0.27,0.12 -0.27,0.27 0,0.15 0.12,0.27 0.27,0.27 0.11,0 0.21,-0.07 0.25,-0.18l0.19 0 0 0.18 0.18 0 0 -0.18 0.09 0 0 -0.18 -0.45 0zm-0.25 0.18c-0.05,0 -0.09,-0.04 -0.09,-0.09 0,-0.05 0.04,-0.09 0.09,-0.09 0.05,0 0.09,0.04 0.09,0.09 0,0.05 -0.04,0.09 -0.09,0.09l0 0z"/>
   </g>
  </g>
 </g>
</svg>
